<svg xmlns="http://www.w3.org/2000/svg" viewBox="0 0 600 500" width="100%" height="100%">
  <defs>
    <linearGradient id="bgGlow" x1="0%" y1="0%" x2="100%" y2="100%">
      <stop offset="0%" stop-color="#0284c7" stop-opacity="0.15"/>
      <stop offset="100%" stop-color="#f59e0b" stop-opacity="0.05"/>
    </linearGradient>
    <linearGradient id="laptopBody" x1="0%" y1="0%" x2="100%" y2="100%">
      <stop offset="0%" stop-color="#334155"/>
      <stop offset="100%" stop-color="#0f172a"/>
    </linearGradient>
    <linearGradient id="screenGrad" x1="0%" y1="0%" x2="0%" y2="100%">
      <stop offset="0%" stop-color="#1e293b"/>
      <stop offset="100%" stop-color="#0f172a"/>
    </linearGradient>
  </defs>

  <circle cx="300" cy="250" r="220" fill="url(#bgGlow)"/>

  <g transform="translate(100, 120)">
    <rect x="50" y="30" width="300" height="190" rx="12" fill="url(#laptopBody)" stroke="#475569" stroke-width="2"/>
    <rect x="60" y="40" width="280" height="170" rx="6" fill="url(#screenGrad)"/>
    
    <rect x="70" y="50" width="260" height="18" rx="4" fill="#334155"/>
    <circle cx="80" cy="59" r="3" fill="#ef4444"/>
    <circle cx="90" cy="59" r="3" fill="#f59e0b"/>
    <circle cx="100" cy="59" r="3" fill="#10b981"/>
    
    <rect x="75" y="80" width="90" height="8" rx="4" fill="#0284c7"/>
    <rect x="172" y="80" width="50" height="8" rx="4" fill="#f59e0b"/>
    <rect x="75" y="96" width="140" height="8" rx="4" fill="#38bdf8" opacity="0.7"/>
    <rect x="75" y="112" width="110" height="8" rx="4" fill="#a855f7" opacity="0.8"/>
    <rect x="192" y="112" width="60" height="8" rx="4" fill="#10b981"/>
    <rect x="75" y="128" width="80" height="8" rx="4" fill="#38bdf8"/>
    <rect x="162" y="128" width="110" height="8" rx="4" fill="#64748b"/>
    
    <path d="M 20 220 L 380 220 L 400 235 L 0 235 Z" fill="#475569"/>
    <rect x="160" y="222" width="80" height="4" rx="2" fill="#94a3b8"/>
  </g>

  <g transform="translate(360, 210)">
    <rect x="0" y="0" width="90" height="170" rx="16" fill="#0f172a" stroke="#64748b" stroke-width="3"/>
    <rect x="5" y="10" width="80" height="145" rx="10" fill="#1e293b"/>
    <rect x="35" y="4" width="20" height="3" rx="1.5" fill="#64748b"/>
    <rect x="12" y="22" width="66" height="35" rx="6" fill="#0284c7" opacity="0.8"/>
    <rect x="12" y="64" width="30" height="30" rx="6" fill="#f59e0b"/>
    <rect x="48" y="64" width="30" height="30" rx="6" fill="#10b981"/>
    <rect x="12" y="101" width="66" height="12" rx="4" fill="#334155"/>
    <rect x="12" y="118" width="45" height="12" rx="4" fill="#334155"/>
  </g>

  <g transform="translate(80, 80)">
    <rect x="0" y="0" width="110" height="50" rx="25" fill="#ffffff" stroke="#e2e8f0" stroke-width="2"/>
    <path d="M 30 32 C 25 32 20 28 22 22 C 24 17 30 16 33 18 C 36 13 45 13 48 18 C 53 18 56 23 54 28 C 58 29 58 32 54 32 Z" fill="#0284c7"/>
    <text x="60" y="30" font-family="sans-serif" font-size="11" font-weight="bold" fill="#1e293b">Cloud</text>
  </g>

  <g transform="translate(420, 90)">
    <circle cx="28" cy="28" r="28" fill="#f59e0b"/>
    <text x="14" y="34" font-family="monospace" font-size="20" font-weight="bold" fill="#ffffff">&lt;/&gt;</text>
  </g>

  <g transform="translate(100, 320)">
    <rect x="0" y="0" width="120" height="42" rx="10" fill="#10b981"/>
    <text x="15" y="26" font-family="sans-serif" font-size="12" font-weight="bold" fill="#ffffff">✓ e-Services</text>
  </g>
</svg>
